# xmcd
#
# Track frame offsets: 
#        150
#        12958
#        25568
#        42116
#        52225
#        62377
#        72791
#        83395
#        93788
#        104769
#        113866
#        122764
#        136884
#        149981
#        157126
#        169652
#        180319
#        192216
#        203166
#        214040
#        223651
#        234398
#        244776
#        253632
#        268700
#        279911
#        287964
#        298303
#        311411
#        323178
#        335362
#        345191
#        356170
#        369648
#        382368
#
# Disc length: 5267 seconds
#
# Revision: 1
# Processed by: cddbd v1.5.2PL0 Copyright (c) Steve Scherf et al.
# Submitted via: ExactAudioCopyFreeDBPlugin 1.0
#
DISCID=1f149123
DTITLE=Various Artist - The Sun Country Box:  Country Music Recorded 
DTITLE=by Sam Phillips, 1950-1959 [Bear Family]
DYEAR=2013
DGENRE=Country
TTITLE0=Johnny Cash - Train of Love
TTITLE1=Johnny Cash - Home of the Blues
TTITLE2=Tommy Blake - Ballad of a Broken Heart
TTITLE3=Johnny Cash - Story of a Broken Heart
TTITLE4=Jack Clement - Ballad of a Teenage Queen
TTITLE5=Johnny Cash - Ballad of a Teenage Queen
TTITLE6=Jack Clement - Quench My Thirst
TTITLE7=Jack Clement - Ten Years
TTITLE8=Jack Clement - Your Lover Boy
TTITLE9=Jack Clement - The Black Haired Man
TTITLE10=Jack Clement - Wrong
TTITLE11=Joe Manuel - Alimony Blues
TTITLE12=Joe Manuel - Daisy Bread Boogie
TTITLE13=Mississippi Slim - Try Doin' Right
TTITLE14=Hardrock Gunter - Fallen Angel
TTITLE15=Hardrock Gunter - Gonna Dance All Night
TTITLE16=The Rhythm Rockers - Jukebox Help Me Find My Baby
TTITLE17=The Rhythm Rockers - Fiddle Bop
TTITLE18=Wanda Ballmann - Honky Tonk Girl
TTITLE19=The Dixieland Drifters - I'm Gonna Find Her
TTITLE20=The Dixieland Drifters - Maybe Tomorrow
TTITLE21=Carl Perkins - Honky Tonk Gal
TTITLE22=Carl Perkins - Perkins Wiggle
TTITLE23=Carl  Perkins - Y.O.U.
TTITLE24=Johnny Cash - Folsom Prison Blues
TTITLE25=Johnny Cash - If the Good Lord's Willing
TTITLE26=Johnny Cash - I Was There When it Happened
TTITLE27=Jerry Lee Lewis - Goodnight Irene
TTITLE28=Jerry Lee Lewis - Ole Pal of Yesterday
TTITLE29=Jerry Lee Lewis - Fools Like Me
TTITLE30=Jerry Lee Lewis - I'll Sail My Ship Alone
TTITLE31=Jerry Lee Lewis - Settin' the Woods on Fire
TTITLE32=Charlie Feathers - So Ashamed
TTITLE33=Charlie Feathers - Honky Tonk Kind
TTITLE34=Charlie Feathers - Frankie and Johnny
EXTD=
EXTT0=
EXTT1=
EXTT2=
EXTT3=
EXTT4=
EXTT5=
EXTT6=
EXTT7=
EXTT8=
EXTT9=
EXTT10=
EXTT11=
EXTT12=
EXTT13=
EXTT14=
EXTT15=
EXTT16=
EXTT17=
EXTT18=
EXTT19=
EXTT20=
EXTT21=
EXTT22=
EXTT23=
EXTT24=
EXTT25=
EXTT26=
EXTT27=
EXTT28=
EXTT29=
EXTT30=
EXTT31=
EXTT32=
EXTT33=
EXTT34=
PLAYORDER=
